<svg id="svg" version="1.1" xmlns="http://www.w3.org/2000/svg" xmlns:xlink="http://www.w3.org/1999/xlink" width="400" height="400" viewBox="0, 0, 400,400"><g id="svgg"><path id="path0" d="M103.867 103.867 C 103.720 104.013,103.600 147.733,103.600 201.021 L 103.600 297.908 104.586 298.554 C 106.216 299.622,297.571 299.538,298.538 298.469 C 299.487 297.420,299.568 107.255,298.620 104.987 L 298.041 103.600 201.087 103.600 C 147.763 103.600,104.013 103.720,103.867 103.867 " stroke="none" fill="#b088c8" fill-rule="evenodd"></path><path id="path1" d="M0.000 200.000 L 0.000 400.000 91.033 400.000 C 149.210 400.000,182.019 399.861,181.933 399.615 C 181.760 399.114,177.925 394.139,168.876 382.677 C 164.848 377.575,158.289 369.260,154.299 364.200 C 143.311 350.261,142.997 349.863,128.084 331.000 C 120.432 321.320,113.427 312.392,112.518 311.161 C 111.609 309.930,110.623 308.670,110.327 308.361 C 110.031 308.052,108.171 305.730,106.194 303.200 L 102.600 298.600 102.498 201.131 C 102.405 112.812,102.454 103.603,103.026 103.031 C 103.597 102.460,112.852 102.400,200.655 102.400 C 298.829 102.400,298.852 102.400,299.665 103.760 C 299.811 104.004,302.421 107.382,305.465 111.266 C 308.509 115.151,314.960 123.409,319.800 129.619 C 324.640 135.828,332.020 145.279,336.200 150.621 C 345.427 162.412,359.239 180.110,367.512 190.744 C 370.874 195.065,374.683 199.950,375.976 201.600 C 383.009 210.571,389.943 219.460,394.200 224.961 C 396.840 228.373,399.225 231.257,399.500 231.370 C 399.899 231.534,400.000 208.260,400.000 115.787 L 400.000 0.000 200.000 0.000 L 0.000 0.000 0.000 200.000 " stroke="none" fill="#fcfbfc" fill-rule="evenodd"></path><path id="path2" d="M103.467 103.467 C 103.320 103.613,103.200 147.445,103.200 200.869 L 103.200 298.005 104.253 298.903 C 105.308 299.802,111.629 307.604,120.697 319.200 C 123.363 322.610,125.806 325.694,126.125 326.052 C 126.444 326.411,127.651 327.941,128.807 329.452 C 129.963 330.964,134.530 336.772,138.955 342.360 C 146.343 351.691,158.963 367.707,160.681 369.932 C 161.076 370.445,161.655 371.137,161.967 371.470 C 162.278 371.804,163.808 373.757,165.367 375.810 C 166.925 377.864,171.601 383.823,175.759 389.053 C 179.916 394.282,183.402 398.885,183.505 399.281 C 183.686 399.971,188.066 400.000,291.847 400.000 L 400.000 400.000 400.000 316.763 C 400.000 237.827,399.964 233.515,399.300 233.338 C 398.915 233.235,398.060 232.412,397.400 231.510 C 396.515 230.301,385.007 215.562,381.698 211.400 C 381.523 211.180,380.486 209.830,379.393 208.400 C 378.301 206.970,375.066 202.815,372.204 199.167 C 369.342 195.518,366.550 191.935,366.000 191.203 C 365.450 190.472,364.820 189.677,364.600 189.437 C 364.380 189.196,363.460 188.010,362.556 186.800 C 361.652 185.590,358.322 181.331,355.156 177.335 C 351.990 173.339,349.040 169.568,348.600 168.954 C 348.160 168.341,344.740 163.947,341.000 159.191 C 337.260 154.435,333.802 150.016,333.316 149.371 C 331.721 147.257,331.263 146.671,325.693 139.600 C 322.660 135.750,319.018 131.070,317.600 129.200 C 316.182 127.330,312.039 122.020,308.393 117.400 C 302.162 109.506,300.256 106.942,298.650 104.300 L 297.982 103.200 200.857 103.200 C 147.439 103.200,103.613 103.320,103.467 103.467 M298.620 104.987 C 299.568 107.255,299.487 297.420,298.538 298.469 C 297.571 299.538,106.216 299.622,104.586 298.554 L 103.600 297.908 103.600 201.021 C 103.600 147.733,103.720 104.013,103.867 103.867 C 104.013 103.720,147.763 103.600,201.087 103.600 L 298.041 103.600 298.620 104.987 " stroke="none" fill="#c4acd4" fill-rule="evenodd"></path><path id="path3" d="M300.675 107.500 C 303.136 110.807,308.871 118.000,309.048 118.000 C 309.223 118.000,306.525 114.421,301.886 108.500 C 299.774 105.805,298.840 105.033,300.675 107.500 M310.951 120.600 C 311.950 121.920,313.330 123.630,314.016 124.400 C 314.703 125.170,314.448 124.720,313.449 123.400 C 312.450 122.080,311.070 120.370,310.384 119.600 C 309.697 118.830,309.952 119.280,310.951 120.600 M317.049 128.500 C 320.456 132.993,326.068 140.000,326.260 140.000 C 326.417 140.000,323.777 136.429,322.119 134.400 C 321.850 134.070,320.262 132.045,318.590 129.900 C 316.919 127.755,315.462 126.000,315.352 126.000 C 315.243 126.000,316.006 127.125,317.049 128.500 M327.600 142.000 C 328.297 142.880,328.957 143.600,329.067 143.600 C 329.177 143.600,328.697 142.880,328.000 142.000 C 327.303 141.120,326.643 140.400,326.533 140.400 C 326.423 140.400,326.903 141.120,327.600 142.000 M330.816 146.039 C 330.807 146.170,331.115 146.641,331.500 147.085 C 331.885 147.530,332.650 148.492,333.200 149.224 C 335.745 152.608,341.677 160.000,341.849 160.000 C 342.049 160.000,340.159 157.380,339.310 156.481 C 339.041 156.196,337.566 154.306,336.032 152.281 C 332.905 148.152,330.841 145.681,330.816 146.039 M343.791 162.747 C 344.872 164.124,345.941 165.364,346.166 165.503 C 346.391 165.642,345.690 164.629,344.609 163.253 C 343.528 161.876,342.459 160.636,342.234 160.497 C 342.009 160.358,342.710 161.371,343.791 162.747 M347.480 167.500 C 348.096 168.324,348.736 169.179,348.903 169.400 C 351.096 172.297,357.323 180.000,357.472 180.000 C 357.580 180.000,356.787 178.875,355.709 177.500 C 354.632 176.125,352.174 172.975,350.249 170.500 C 348.323 168.025,346.661 166.000,346.554 166.000 C 346.447 166.000,346.863 166.675,347.480 167.500 M359.391 182.747 C 360.472 184.124,361.541 185.364,361.766 185.503 C 361.991 185.642,361.290 184.629,360.209 183.253 C 359.128 181.876,358.059 180.636,357.834 180.497 C 357.609 180.358,358.310 181.371,359.391 182.747 M363.027 187.432 C 363.672 188.294,364.380 189.196,364.600 189.437 C 364.820 189.677,365.450 190.472,366.000 191.203 C 366.550 191.935,369.342 195.518,372.204 199.167 C 375.066 202.815,378.301 206.970,379.393 208.400 C 380.486 209.830,381.522 211.180,381.696 211.400 C 381.870 211.620,384.551 215.040,387.654 219.000 C 390.757 222.960,393.665 226.560,394.116 227.000 C 394.566 227.440,394.163 226.810,393.219 225.600 C 392.275 224.390,390.129 221.628,388.451 219.462 C 386.773 217.296,381.980 211.144,377.800 205.790 C 373.620 200.437,368.507 193.877,366.437 191.213 C 362.972 186.753,360.328 183.820,363.027 187.432 M395.884 229.416 C 397.733 232.092,398.562 233.028,399.349 233.328 C 399.861 233.522,399.734 233.262,398.949 232.506 C 398.317 231.898,397.118 230.590,396.284 229.600 C 394.799 227.837,394.790 227.833,395.884 229.416 M106.183 301.400 C 109.284 305.149,110.175 305.980,107.848 302.955 C 106.814 301.610,105.495 300.080,104.917 299.555 C 104.339 299.030,104.909 299.860,106.183 301.400 M110.247 306.378 C 110.492 306.720,112.483 309.250,114.669 312.000 C 116.856 314.750,120.056 318.850,121.780 321.112 C 123.505 323.374,125.092 325.334,125.308 325.467 C 126.027 325.911,125.081 324.643,118.524 316.370 C 113.058 309.474,108.638 304.138,110.247 306.378 M130.252 331.913 C 132.808 335.151,135.267 338.160,135.716 338.600 C 136.165 339.040,135.687 338.320,134.652 337.000 C 133.618 335.680,131.383 332.764,129.686 330.521 C 127.989 328.277,126.376 326.348,126.102 326.234 C 125.829 326.120,127.696 328.676,130.252 331.913 M137.675 341.300 C 138.429 342.235,140.091 344.305,141.368 345.900 C 142.645 347.495,143.782 348.800,143.893 348.800 C 144.005 348.800,143.479 348.035,142.725 347.100 C 141.971 346.165,140.309 344.095,139.032 342.500 C 137.755 340.905,136.618 339.600,136.507 339.600 C 136.395 339.600,136.921 340.365,137.675 341.300 M145.289 350.800 C 154.534 362.890,161.253 371.210,159.720 368.670 C 159.196 367.802,146.555 351.917,145.180 350.400 C 143.974 349.068,143.979 349.087,145.289 350.800 M160.673 370.508 C 161.073 371.005,162.719 373.074,164.331 375.106 C 165.943 377.138,167.341 378.800,167.439 378.800 C 167.675 378.800,162.849 372.400,161.924 371.484 C 161.526 371.091,161.200 370.615,161.200 370.427 C 161.200 370.239,160.918 369.977,160.573 369.845 C 160.062 369.649,160.080 369.772,160.673 370.508 M170.658 383.100 C 176.437 390.387,178.090 392.400,178.293 392.400 C 178.405 392.400,177.876 391.635,177.117 390.700 C 176.359 389.765,173.989 386.795,171.849 384.100 C 169.710 381.405,167.871 379.200,167.762 379.200 C 167.654 379.200,168.956 380.955,170.658 383.100 M180.273 395.194 C 181.333 396.511,182.515 398.176,182.899 398.894 C 183.284 399.612,183.599 399.908,183.599 399.552 C 183.600 398.960,178.982 392.800,178.538 392.800 C 178.433 392.800,179.214 393.877,180.273 395.194 " stroke="none" fill="#c4b4d4" fill-rule="evenodd"></path><path id="path4" d="M200.984 103.199 L 298.168 103.400 298.998 104.632 C 299.962 106.062,303.224 110.282,313.923 123.941 C 318.171 129.363,322.065 134.340,322.577 135.000 C 323.088 135.660,325.733 139.052,328.453 142.537 C 331.174 146.022,334.457 150.252,335.748 151.937 C 337.040 153.622,338.604 155.630,339.225 156.400 C 339.846 157.170,343.368 161.670,347.053 166.400 C 350.738 171.130,357.363 179.618,361.776 185.262 C 366.189 190.906,373.400 200.146,377.800 205.797 C 395.289 228.257,398.109 231.827,398.895 232.510 C 400.100 233.556,400.268 233.000,399.073 231.921 C 398.105 231.046,387.932 218.240,381.016 209.191 C 377.990 205.231,375.532 202.086,358.352 180.200 C 354.552 175.360,350.000 169.510,348.236 167.200 C 346.472 164.890,342.322 159.561,339.014 155.358 C 335.706 151.155,329.040 142.636,324.200 136.426 C 319.360 130.216,311.933 120.694,307.696 115.267 C 303.459 109.840,299.536 104.815,298.979 104.100 L 297.966 102.800 200.883 102.899 L 103.800 102.998 200.984 103.199 M102.898 200.830 L 102.800 297.859 107.900 304.274 C 114.994 313.198,125.590 326.591,129.517 331.600 C 131.328 333.910,139.485 344.260,147.642 354.600 C 155.799 364.940,163.532 374.750,164.827 376.400 C 166.121 378.050,170.665 383.810,174.924 389.200 C 179.183 394.590,182.774 399.270,182.903 399.600 C 183.101 400.109,183.142 400.103,183.168 399.558 C 183.186 399.204,178.508 392.994,172.773 385.758 C 167.039 378.521,159.884 369.466,156.873 365.637 C 153.863 361.807,145.220 350.848,137.666 341.284 C 130.112 331.720,122.738 322.344,121.280 320.447 C 115.600 313.064,106.220 301.326,104.845 299.881 L 103.400 298.361 103.198 201.081 L 102.997 103.800 102.898 200.830 " stroke="none" fill="#d2c2de" fill-rule="evenodd"></path><path id="path5" d="M103.026 103.031 C 102.454 103.603,102.405 112.812,102.498 201.131 L 102.600 298.600 106.194 303.200 C 108.171 305.730,110.031 308.052,110.327 308.361 C 110.623 308.670,111.609 309.930,112.518 311.161 C 113.427 312.392,120.432 321.320,128.084 331.000 C 142.997 349.863,143.311 350.261,154.299 364.200 C 158.289 369.260,164.848 377.575,168.876 382.677 C 177.925 394.139,181.760 399.114,181.933 399.615 C 182.113 400.134,182.800 400.107,182.800 399.581 C 182.800 399.351,179.285 394.716,174.990 389.281 C 170.694 383.847,166.121 378.050,164.827 376.400 C 163.532 374.750,155.799 364.940,147.642 354.600 C 139.485 344.260,131.328 333.910,129.517 331.600 C 125.590 326.591,114.994 313.198,107.900 304.274 L 102.800 297.859 102.800 200.958 C 102.800 113.400,102.861 103.997,103.429 103.429 C 103.997 102.861,113.405 102.800,201.012 102.800 L 297.966 102.800 298.979 104.100 C 299.536 104.815,303.459 109.840,307.696 115.267 C 311.933 120.694,319.360 130.216,324.200 136.426 C 329.040 142.636,335.706 151.155,339.014 155.358 C 342.322 159.561,346.472 164.890,348.236 167.200 C 350.000 169.510,354.552 175.360,358.352 180.200 C 375.532 202.086,377.990 205.231,381.016 209.191 C 393.035 224.918,399.418 232.715,399.888 232.245 C 400.059 232.074,399.915 231.724,399.569 231.467 C 399.223 231.210,396.832 228.300,394.256 225.000 C 391.681 221.700,387.116 215.850,384.113 212.000 C 381.110 208.150,377.520 203.560,376.136 201.800 C 374.751 200.040,370.870 195.065,367.509 190.744 C 359.583 180.551,345.787 162.872,336.200 150.621 C 332.020 145.279,324.640 135.828,319.800 129.619 C 314.960 123.409,308.509 115.151,305.465 111.266 C 302.421 107.382,299.811 104.004,299.665 103.760 C 298.852 102.400,298.829 102.400,200.655 102.400 C 112.852 102.400,103.597 102.460,103.026 103.031 " stroke="none" fill="#dcd4e4" fill-rule="evenodd"></path></g></svg>